<svg xmlns="http://www.w3.org/2000/svg" viewBox="0 0 960 540" role="img" aria-labelledby="title desc">
  <title id="title">Integrated thermal vision system illustration</title>
  <desc id="desc">An original line illustration of an armored vehicle with a stabilized sensor and thermal coverage arcs.</desc>
  <defs>
    <linearGradient id="bg" x1="0" y1="0" x2="1" y2="1">
      <stop offset="0" stop-color="#07111f"/>
      <stop offset="1" stop-color="#10263b"/>
    </linearGradient>
    <linearGradient id="thermal" x1="0" y1="0" x2="1" y2="0">
      <stop offset="0" stop-color="#ffb000" stop-opacity=".1"/>
      <stop offset="1" stop-color="#ffb000" stop-opacity=".55"/>
    </linearGradient>
    <pattern id="grid" width="48" height="48" patternUnits="userSpaceOnUse">
      <path d="M48 0H0v48" fill="none" stroke="#7f9bb4" stroke-opacity=".12"/>
    </pattern>
  </defs>
  <rect width="960" height="540" fill="url(#bg)"/>
  <rect width="960" height="540" fill="url(#grid)"/>
  <g fill="none" stroke="#ffb000" stroke-width="3" opacity=".62">
    <path d="M479 169C640 73 811 88 913 198"/>
    <path d="M479 169C659 133 823 176 913 287" opacity=".65"/>
    <path d="M479 169C650 213 789 302 854 426" opacity=".32"/>
  </g>
  <path d="M479 169C650 115 827 154 913 287 750 221 615 223 479 169Z" fill="url(#thermal)" opacity=".32"/>
  <g stroke="#b9cad9" stroke-width="6" stroke-linejoin="round">
    <path d="M139 352h637l42 46-31 48H169l-52-43Z" fill="#102237"/>
    <path d="M202 352l70-126h314l101 126Z" fill="#132b43"/>
    <path d="M306 226l-29 126M538 226l55 126M260 302h375" fill="none" stroke-opacity=".56"/>
    <path d="M119 403H62v-58h80" fill="none"/>
    <path d="M765 351h94v43h-47" fill="#102237"/>
  </g>
  <g fill="#07111f" stroke="#b9cad9" stroke-width="7">
    <circle cx="245" cy="434" r="57"/>
    <circle cx="245" cy="434" r="24"/>
    <circle cx="688" cy="434" r="57"/>
    <circle cx="688" cy="434" r="24"/>
  </g>
  <g transform="translate(479 169)">
    <path d="M-54-2h108v69H-54Z" fill="#142f49" stroke="#d8e3ec" stroke-width="6"/>
    <circle cy="31" r="24" fill="#07111f" stroke="#ffb000" stroke-width="6"/>
    <circle cy="31" r="8" fill="#ffb000"/>
    <path d="M0 67v33M-27 100h54" fill="none" stroke="#d8e3ec" stroke-width="7"/>
    <path d="M-73 9h19M54 9h19" stroke="#ffb000" stroke-width="5"/>
  </g>
  <g font-family="ui-monospace,monospace" fill="#9db2c4">
    <text x="55" y="72" font-size="22" letter-spacing="4">INTEGRATED VISION SYSTEM</text>
    <text x="55" y="103" font-size="15" letter-spacing="3" fill="#ffb000">THERMAL // STABILIZED // SITUATIONAL AWARENESS</text>
    <text x="753" y="495" font-size="14" letter-spacing="2">PUBLIC PROGRAM CONTEXT</text>
  </g>
</svg>
